<svg width="21" height="21" viewBox="0 0 21 21" fill="none" xmlns="http://www.w3.org/2000/svg">
<g clip-path="url(#clip0_1584_49839)">
<path d="M18.4854 10.2682H16.4192C16.055 10.2674 15.7007 10.386 15.4103 10.6056C15.1199 10.8253 14.9095 11.1341 14.8111 11.4847L12.8532 18.45C12.8406 18.4932 12.8143 18.5312 12.7782 18.5583C12.7422 18.5853 12.6983 18.5999 12.6532 18.5999C12.6082 18.5999 12.5643 18.5853 12.5283 18.5583C12.4922 18.5312 12.4659 18.4932 12.4533 18.45L7.85418 2.08649C7.84156 2.04323 7.81524 2.00522 7.77919 1.97818C7.74313 1.95114 7.69928 1.93652 7.65421 1.93652C7.60915 1.93652 7.56529 1.95114 7.52924 1.97818C7.49318 2.00522 7.46687 2.04323 7.45425 2.08649L5.4963 9.0518C5.39838 9.40103 5.18918 9.70877 4.90047 9.92831C4.61176 10.1478 4.25931 10.2672 3.89662 10.2682H1.82202" stroke="#00C950" stroke-width="1.66634" stroke-linecap="round" stroke-linejoin="round"/>
</g>
<defs>
<clipPath id="clip0_1584_49839">
<rect width="19.9961" height="19.9961" fill="white" transform="translate(0.155762 0.270508)"/>
</clipPath>
</defs>
</svg>
