<svg width="21" height="21" viewBox="0 0 21 21" fill="none" xmlns="http://www.w3.org/2000/svg">
<g clip-path="url(#clip0_1584_49872)">
<path d="M10.1538 15.4201V4.58887" stroke="#AD46FF" stroke-width="1.66634" stroke-linecap="round" stroke-linejoin="round"/>
<path d="M12.6533 11.2536C11.9325 11.0429 11.2993 10.6042 10.8487 10.0034C10.3981 9.40259 10.1543 8.67193 10.1538 7.9209C10.1534 8.67193 9.90956 9.40259 9.45894 10.0034C9.00833 10.6042 8.37516 11.0429 7.6543 11.2536" stroke="#AD46FF" stroke-width="1.66634" stroke-linecap="round" stroke-linejoin="round"/>
<path d="M14.8179 5.83824C15.0096 5.50622 15.1224 5.13453 15.1475 4.75195C15.1726 4.36937 15.1093 3.98614 14.9626 3.63192C14.8159 3.2777 14.5896 2.96197 14.3014 2.70917C14.0131 2.45637 13.6706 2.27327 13.3002 2.17404C12.9299 2.0748 12.5417 2.0621 12.1657 2.1369C11.7896 2.2117 11.4358 2.37201 11.1317 2.60541C10.8275 2.83882 10.5811 3.13907 10.4115 3.48295C10.242 3.82682 10.1538 4.20508 10.1538 4.58849C10.1538 4.20508 10.0656 3.82682 9.89608 3.48295C9.72651 3.13907 9.48011 2.83882 9.17594 2.60541C8.87177 2.37201 8.51798 2.2117 8.14195 2.1369C7.76591 2.0621 7.37771 2.0748 7.00737 2.17404C6.63703 2.27327 6.29448 2.45637 6.00623 2.70917C5.71797 2.96197 5.49174 3.2777 5.34502 3.63192C5.19831 3.98614 5.13505 4.36937 5.16014 4.75195C5.18523 5.13453 5.298 5.50622 5.48972 5.83824" stroke="#AD46FF" stroke-width="1.66634" stroke-linecap="round" stroke-linejoin="round"/>
<path d="M15.1504 4.69238C15.6401 4.81831 16.0948 5.05402 16.4799 5.38167C16.8651 5.70933 17.1706 6.12033 17.3734 6.58355C17.5762 7.04678 17.6709 7.55007 17.6504 8.05532C17.6299 8.56057 17.4947 9.05453 17.255 9.49978" stroke="#AD46FF" stroke-width="1.66634" stroke-linecap="round" stroke-linejoin="round"/>
<path d="M15.1528 15.42C15.8864 15.4199 16.5995 15.1778 17.1815 14.7312C17.7636 14.2846 18.1819 13.6585 18.3718 12.9498C18.5617 12.2412 18.5124 11.4898 18.2317 10.812C17.951 10.1342 17.4545 9.56801 16.8192 9.20117" stroke="#AD46FF" stroke-width="1.66634" stroke-linecap="round" stroke-linejoin="round"/>
<path d="M16.7918 14.9893C16.8501 15.441 16.8153 15.9 16.6894 16.3378C16.5634 16.7755 16.3491 17.1829 16.0596 17.5346C15.7701 17.8863 15.4115 18.1749 15.0061 18.3826C14.6007 18.5903 14.157 18.7126 13.7024 18.7421C13.2478 18.7716 12.792 18.7076 12.3631 18.5541C11.9343 18.4005 11.5414 18.1607 11.2089 17.8493C10.8763 17.538 10.6112 17.1618 10.4297 16.744C10.2482 16.3261 10.1544 15.8755 10.1539 15.42C10.1534 15.8755 10.0595 16.3261 9.87808 16.744C9.69662 17.1618 9.43144 17.538 9.09889 17.8493C8.76635 18.1607 8.37351 18.4005 7.94464 18.5541C7.51577 18.7076 7.05997 18.7716 6.60539 18.7421C6.15082 18.7126 5.70711 18.5903 5.30169 18.3826C4.89626 18.1749 4.53771 17.8863 4.2482 17.5346C3.95868 17.1829 3.74434 16.7755 3.6184 16.3378C3.49247 15.9 3.45763 15.441 3.51602 14.9893" stroke="#AD46FF" stroke-width="1.66634" stroke-linecap="round" stroke-linejoin="round"/>
<path d="M5.1548 15.42C4.42119 15.4199 3.70809 15.1778 3.12609 14.7312C2.54408 14.2846 2.1257 13.6585 1.93583 12.9498C1.74595 12.2412 1.7952 11.4898 2.07592 10.812C2.35664 10.1342 2.85315 9.56801 3.48846 9.20117" stroke="#AD46FF" stroke-width="1.66634" stroke-linecap="round" stroke-linejoin="round"/>
<path d="M5.15731 4.69238C4.66757 4.81831 4.21291 5.05402 3.82776 5.38167C3.44261 5.70933 3.13707 6.12033 2.93428 6.58355C2.73149 7.04678 2.63677 7.55007 2.65729 8.05532C2.67781 8.56057 2.81303 9.05453 3.05272 9.49978" stroke="#AD46FF" stroke-width="1.66634" stroke-linecap="round" stroke-linejoin="round"/>
</g>
<defs>
<clipPath id="clip0_1584_49872">
<rect width="19.9961" height="19.9961" fill="white" transform="translate(0.155762 0.422852)"/>
</clipPath>
</defs>
</svg>
