<svg width="21" height="21" viewBox="0 0 21 21" fill="none" xmlns="http://www.w3.org/2000/svg">
<g clip-path="url(#clip0_1584_49912)">
<path d="M18.4854 10.5729H16.4192C16.055 10.5721 15.7007 10.6906 15.4103 10.9103C15.1199 11.13 14.9095 11.4387 14.8111 11.7893L12.8532 18.7546C12.8406 18.7979 12.8143 18.8359 12.7782 18.863C12.7422 18.89 12.6983 18.9046 12.6532 18.9046C12.6082 18.9046 12.5643 18.89 12.5283 18.863C12.4922 18.8359 12.4659 18.7979 12.4533 18.7546L7.85418 2.39118C7.84156 2.34792 7.81524 2.30991 7.77919 2.28287C7.74313 2.25583 7.69928 2.24121 7.65421 2.24121C7.60915 2.24121 7.56529 2.25583 7.52924 2.28287C7.49318 2.30991 7.46687 2.34792 7.45425 2.39118L5.4963 9.35649C5.39838 9.70571 5.18918 10.0135 4.90047 10.233C4.61176 10.4525 4.25931 10.5719 3.89662 10.5729H1.82202" stroke="#FF6900" stroke-width="1.66634" stroke-linecap="round" stroke-linejoin="round"/>
</g>
<defs>
<clipPath id="clip0_1584_49912">
<rect width="19.9961" height="19.9961" fill="white" transform="translate(0.155762 0.575195)"/>
</clipPath>
</defs>
</svg>
