<svg width="21" height="21" viewBox="0 0 21 21" fill="none" xmlns="http://www.w3.org/2000/svg">
<path d="M17.6397 11.1297C17.5616 12.5762 17.0662 13.9691 16.2134 15.1401C15.3606 16.311 14.1868 17.2099 12.834 17.728C11.4812 18.2461 10.0073 18.3613 8.59048 18.0596C7.17363 17.7579 5.87449 17.0523 4.85012 16.028C3.82574 15.0038 3.11998 13.7047 2.81814 12.2879C2.51631 10.8711 2.63133 9.39716 3.1493 8.04432C3.66726 6.69147 4.566 5.51762 5.73687 4.66466C6.90774 3.8117 8.30061 3.31615 9.74711 3.23791C10.0845 3.21958 10.2612 3.62117 10.082 3.90695C9.4829 4.86555 9.22635 5.99893 9.35427 7.12211C9.48218 8.24529 9.987 9.29196 10.7863 10.0913C11.5857 10.8906 12.6324 11.3955 13.7555 11.5234C14.8787 11.6513 16.0121 11.3947 16.9707 10.7956C17.2573 10.6165 17.6581 10.7923 17.6397 11.1297Z" stroke="#615FFF" stroke-width="1.66634" stroke-linecap="round" stroke-linejoin="round"/>
</svg>
