<svg width="17" height="17" viewBox="0 0 17 17" fill="none" xmlns="http://www.w3.org/2000/svg">
<g clip-path="url(#clip0_1584_40773)">
<path d="M15.2928 7.03768C15.597 8.53022 15.3802 10.0819 14.6787 11.434C13.9773 12.7861 12.8335 13.8568 11.4381 14.4676C10.0428 15.0785 8.48016 15.1925 7.01091 14.7906C5.54166 14.3888 4.25458 13.4954 3.36429 12.2595C2.474 11.0235 2.03433 9.51974 2.1186 7.99887C2.20287 6.47799 2.80598 5.03197 3.82736 3.90195C4.84873 2.77193 6.22664 2.02621 7.73129 1.78916C9.23594 1.5521 10.7764 1.83804 12.0957 2.59929" stroke="#00A63E" stroke-width="1.33185" stroke-linecap="round" stroke-linejoin="round"/>
<path d="M6.76855 7.70445L8.76633 9.70222L15.4256 3.04297" stroke="#00A63E" stroke-width="1.33185" stroke-linecap="round" stroke-linejoin="round"/>
</g>
<defs>
<clipPath id="clip0_1584_40773">
<rect width="15.9822" height="15.9822" fill="white" transform="translate(0.775391 0.378906)"/>
</clipPath>
</defs>
</svg>
